<svg xmlns="http://www.w3.org/2000/svg" version="1.1" xmlns:xlink="http://www.w3.org/1999/xlink" xmlns:svgjs="http://svgjs.dev/svgjs" width="2000" height="1101" viewBox="0 0 2000 1101"><g transform="matrix(1,0,0,1,-1.2121212121212466,0.9979542920871154)"><svg viewBox="0 0 396 218" data-background-color="#ffffff" preserveAspectRatio="xMidYMid meet" height="1101" width="2000" xmlns="http://www.w3.org/2000/svg" xmlns:xlink="http://www.w3.org/1999/xlink"><g id="tight-bounds" transform="matrix(1,0,0,1,0.2400000000000091,-0.19759676264757786)"><svg viewBox="0 0 395.52 218.39519352529516" height="218.39519352529516" width="395.52"><g><svg viewBox="0 0 395.52 218.39519352529516" height="218.39519352529516" width="395.52"><g><svg viewBox="0 0 395.52 218.39519352529516" height="218.39519352529516" width="395.52"><g id="textblocktransform"><svg viewBox="0 0 395.52 218.39519352529516" height="218.39519352529516" width="395.52" id="textblock"><g><svg viewBox="0 0 395.52 177.4188167351714" height="177.4188167351714" width="395.52"><g transform="matrix(1,0,0,1,0,0)"><svg width="395.52" viewBox="3.6899999999999906 -35.010000000000005 173.87000000000003 74.5" height="177.4188167351714" data-palette-color="#0080ff"><svg></svg><svg></svg><g class="wordmark-text-0" data-fill-palette-color="primary" id="text-0"><path d="M38.67-27.29v4.05c0 1.447-0.18 2.74-0.54 3.88-0.353 1.14-0.837 2.143-1.45 3.01-0.607 0.873-1.31 1.62-2.11 2.24-0.8 0.62-1.633 1.127-2.5 1.52-0.873 0.4-1.753 0.69-2.64 0.87-0.887 0.18-1.72 0.27-2.5 0.27v0l13.26 11.45h-9.82l-13.23-11.45h-4.57v-6.35h14.36c0.8-0.067 1.527-0.233 2.18-0.5 0.66-0.267 1.23-0.627 1.71-1.08 0.48-0.46 0.85-1.01 1.11-1.65 0.26-0.647 0.39-1.383 0.39-2.21v0-4.01c0-0.353-0.043-0.623-0.13-0.81-0.087-0.187-0.2-0.327-0.34-0.42-0.14-0.087-0.287-0.14-0.44-0.16-0.153-0.013-0.297-0.02-0.43-0.02v0h-20.95v28.66h-6.34v-31.81c0-0.44 0.08-0.857 0.24-1.25 0.16-0.387 0.383-0.727 0.67-1.02 0.287-0.293 0.627-0.523 1.02-0.69 0.387-0.16 0.807-0.24 1.26-0.24v0h24.1c1.42 0 2.617 0.257 3.59 0.77 0.98 0.513 1.773 1.157 2.38 1.93 0.613 0.773 1.053 1.607 1.32 2.5 0.267 0.893 0.4 1.733 0.4 2.52zM74.49-35.01v26.1c0 1.267-0.22 2.447-0.66 3.54-0.44 1.087-1.057 2.03-1.85 2.83-0.787 0.8-1.723 1.423-2.81 1.87-1.093 0.447-2.283 0.67-3.57 0.67v0h-23.27v-6.35h23.27c0.78 0 1.39-0.223 1.83-0.67 0.44-0.447 0.66-1.077 0.66-1.89v0-26.1zM116.75-27.29v4.05c0 1.447-0.18 2.74-0.54 3.88-0.36 1.14-0.843 2.143-1.45 3.01-0.613 0.873-1.317 1.62-2.11 2.24-0.8 0.62-1.637 1.127-2.51 1.52-0.867 0.4-1.743 0.69-2.63 0.87-0.887 0.18-1.723 0.27-2.51 0.27v0l13.26 11.45h-9.81l-13.24-11.45h-4.56v-6.35h14.35c0.8-0.067 1.53-0.233 2.19-0.5 0.66-0.267 1.23-0.627 1.71-1.08 0.48-0.46 0.85-1.01 1.11-1.65 0.26-0.647 0.39-1.383 0.39-2.21v0-4.01c0-0.353-0.043-0.623-0.13-0.81-0.093-0.187-0.21-0.327-0.35-0.42-0.133-0.087-0.28-0.14-0.44-0.16-0.153-0.013-0.293-0.02-0.42-0.02v0h-20.95v28.66h-6.35v-31.81c0-0.44 0.083-0.857 0.25-1.25 0.16-0.387 0.383-0.727 0.67-1.02 0.287-0.293 0.623-0.523 1.01-0.69 0.393-0.16 0.817-0.24 1.27-0.24v0h24.1c1.413 0 2.61 0.257 3.59 0.77 0.973 0.513 1.767 1.157 2.38 1.93 0.607 0.773 1.047 1.607 1.32 2.5 0.267 0.893 0.4 1.733 0.4 2.52z" fill="#0080ff" fill-rule="nonzero" stroke="none" stroke-width="1" stroke-linecap="butt" stroke-linejoin="miter" stroke-miterlimit="10" stroke-dasharray="" stroke-dashoffset="0" font-family="none" font-weight="none" font-size="none" text-anchor="none" style="mix-blend-mode: normal" data-fill-palette-color="primary" opacity="1"></path><path d="M44.43 6.7v32.3h-6.39v-20.85l-11.26 19.8c-0.273 0.507-0.66 0.89-1.16 1.15-0.493 0.26-1.027 0.39-1.6 0.39v0c-0.553 0-1.07-0.13-1.55-0.39-0.48-0.26-0.857-0.643-1.13-1.15v0l-11.31-19.8v20.85h-6.34v-32.3c0-0.733 0.213-1.383 0.64-1.95 0.433-0.573 1-0.957 1.7-1.15v0c0.34-0.08 0.683-0.11 1.03-0.09 0.34 0.027 0.667 0.1 0.98 0.22 0.32 0.127 0.61 0.3 0.87 0.52 0.26 0.22 0.48 0.483 0.66 0.79v0l14.45 25.12 14.46-25.12c0.373-0.62 0.89-1.06 1.55-1.32 0.66-0.26 1.347-0.3 2.06-0.12v0c0.687 0.193 1.247 0.577 1.68 1.15 0.44 0.567 0.66 1.217 0.66 1.95zM86.11 3.99v31.81c0 0.46-0.083 0.883-0.25 1.27-0.16 0.393-0.387 0.73-0.68 1.01-0.293 0.287-0.633 0.513-1.02 0.68-0.393 0.16-0.81 0.24-1.25 0.24v0h-14.31c-1.347 0-2.713-0.147-4.1-0.44-1.38-0.293-2.717-0.743-4.01-1.35-1.3-0.613-2.517-1.393-3.65-2.34-1.14-0.94-2.137-2.057-2.99-3.35-0.86-1.293-1.533-2.777-2.02-4.45-0.487-1.667-0.73-3.523-0.73-5.57v0-17.51h6.35v17.51c0 1.787 0.247 3.3 0.74 4.54 0.5 1.233 1.13 2.267 1.89 3.1 0.767 0.827 1.607 1.477 2.52 1.95 0.907 0.473 1.773 0.823 2.6 1.05 0.82 0.227 1.543 0.37 2.17 0.43 0.627 0.053 1.037 0.08 1.23 0.08v0h11.16v-28.66zM127.12 28.7v0c0 1.253-0.157 2.38-0.47 3.38-0.32 1-0.74 1.883-1.26 2.65-0.52 0.76-1.13 1.41-1.83 1.95-0.7 0.54-1.423 0.98-2.17 1.32-0.753 0.34-1.517 0.593-2.29 0.76-0.773 0.16-1.5 0.24-2.18 0.24v0h-24.49v-6.35h24.49c1.22 0 2.167-0.357 2.84-1.07 0.68-0.72 1.02-1.68 1.02-2.88v0c0-0.587-0.09-1.123-0.27-1.61-0.18-0.493-0.437-0.917-0.77-1.27-0.333-0.36-0.74-0.637-1.22-0.83-0.48-0.2-1.013-0.3-1.6-0.3v0h-14.6c-1.027 0-2.133-0.183-3.32-0.55-1.187-0.367-2.29-0.957-3.31-1.77-1.013-0.813-1.86-1.877-2.54-3.19-0.673-1.32-1.01-2.933-1.01-4.84v0c0-1.9 0.337-3.507 1.01-4.82 0.68-1.313 1.527-2.38 2.54-3.2 1.02-0.82 2.123-1.413 3.31-1.78 1.187-0.367 2.293-0.55 3.32-0.55v0h21.61v6.35h-21.61c-1.207 0-2.147 0.367-2.82 1.1-0.673 0.733-1.01 1.7-1.01 2.9v0c0 1.22 0.337 2.183 1.01 2.89 0.673 0.713 1.613 1.07 2.82 1.07v0h14.6 0.05c0.68 0.013 1.403 0.107 2.17 0.28 0.767 0.167 1.527 0.43 2.28 0.79 0.76 0.36 1.48 0.813 2.16 1.36 0.687 0.54 1.293 1.193 1.82 1.96 0.533 0.767 0.953 1.647 1.26 2.64 0.307 0.993 0.46 2.117 0.46 3.37zM138.79 3.99v35.01h-6.34v-35.01zM177.56 32.65v6.35h-22.9c-0.587 0-1.217-0.07-1.89-0.21-0.673-0.14-1.34-0.353-2-0.64-0.66-0.293-1.29-0.673-1.89-1.14-0.607-0.467-1.14-1.027-1.6-1.68-0.467-0.66-0.837-1.427-1.11-2.3-0.28-0.873-0.42-1.853-0.42-2.94v0-17.19c0-0.587 0.07-1.217 0.21-1.89 0.14-0.673 0.357-1.34 0.65-2 0.293-0.66 0.673-1.29 1.14-1.89 0.473-0.607 1.04-1.14 1.7-1.6 0.66-0.467 1.42-0.837 2.28-1.11 0.867-0.28 1.843-0.42 2.93-0.42v0h22.9v6.35h-22.9c-0.827 0-1.46 0.22-1.9 0.66-0.44 0.44-0.66 1.09-0.66 1.95v0 17.14c0 0.813 0.223 1.443 0.67 1.89 0.447 0.447 1.077 0.67 1.89 0.67v0z" fill="#010c80" fill-rule="nonzero" stroke="none" stroke-width="1" stroke-linecap="butt" stroke-linejoin="miter" stroke-miterlimit="10" stroke-dasharray="" stroke-dashoffset="0" font-family="none" font-weight="none" font-size="none" text-anchor="none" style="mix-blend-mode: normal" data-fill-palette-color="accent" opacity="1"></path></g></svg></g></svg></g><g transform="matrix(1,0,0,1,0,196.74996426120893)"><svg viewBox="0 0 232.20979200000002 21.645229264086232" height="21.645229264086232" width="232.20979200000002"><g transform="matrix(1,0,0,1,0,0)"><svg width="232.20979200000002" viewBox="0.7 -37.6 408.16 38.050000000000004" height="21.645229264086232" data-palette-color="#0080ff"><path d="M13.9 0.1L12.05 0.1Q11.2 0.1 10.7-0.15 10.2-0.4 10.05-0.95L10.05-0.95 0.85-33.55Q0.8-33.7 0.75-33.9 0.7-34.1 0.7-34.25L0.7-34.25Q0.7-34.65 1.2-34.88 1.7-35.1 2.75-35.1L2.75-35.1 3.25-35.1Q4-35.1 4.58-34.93 5.15-34.75 5.25-34.3L5.25-34.3 12.9-4.5 13.1-4.5 19.8-34.05Q19.9-34.6 20.43-34.85 20.95-35.1 21.8-35.1L21.8-35.1 23.45-35.1Q24.3-35.1 24.9-34.85 25.5-34.6 25.6-34.05L25.6-34.05 32.4-4.5 32.6-4.5 40.25-34.3Q40.35-34.75 40.93-34.93 41.5-35.1 42.25-35.1L42.25-35.1 42.75-35.1Q43.8-35.1 44.3-34.88 44.8-34.65 44.8-34.25L44.8-34.25Q44.8-34.1 44.75-33.9 44.7-33.7 44.65-33.55L44.65-33.55 35.45-0.95Q35.3-0.4 34.8-0.15 34.3 0.1 33.45 0.1L33.45 0.1 31.6 0.1Q30.75 0.1 30.18-0.15 29.6-0.4 29.45-0.95L29.45-0.95 22.8-29.55 22.6-29.55 16.05-0.95Q15.95-0.4 15.35-0.15 14.75 0.1 13.9 0.1L13.9 0.1ZM58.15 0.3L58.15 0.3Q52.4 0.3 49.32-2.7 46.25-5.7 46.25-12.95L46.25-12.95Q46.25-17.3 47.6-20.3 48.95-23.3 51.57-24.88 54.2-26.45 57.95-26.45L57.95-26.45Q61.35-26.45 63.62-24.98 65.9-23.5 67.02-20.6 68.15-17.7 68.15-13.5L68.15-13.5Q68.15-13.05 67.9-12.55 67.65-12.05 67.25-11.7 66.85-11.35 66.4-11.35L66.4-11.35 50.65-11.35Q50.75-7.2 52.6-5.25 54.45-3.3 58.25-3.3L58.25-3.3Q60.65-3.3 62.32-3.85 64-4.4 64.97-4.95 65.95-5.5 66.2-5.5L66.2-5.5Q66.55-5.5 66.82-5.08 67.1-4.65 67.3-4.1 67.5-3.55 67.5-3.15L67.5-3.15Q67.5-2.7 66.77-2.13 66.05-1.55 64.77-0.98 63.5-0.4 61.8-0.05 60.1 0.3 58.15 0.3ZM50.65-14.95L50.65-14.95 63.85-14.95Q63.85-18.9 62.2-20.88 60.55-22.85 57.5-22.85L57.5-22.85Q55.3-22.85 53.8-21.88 52.3-20.9 51.5-19.15 50.7-17.4 50.65-14.95ZM96.59 0.1L95.89 0.1Q94.89 0.1 94.44-0.2 93.99-0.5 93.99-1L93.99-1 93.99-31.2 84.39-31.2Q83.44-31.2 83.44-32.7L83.44-32.7 83.44-33.5Q83.44-35 84.39-35L84.39-35 107.89-35Q108.89-35 108.89-33.5L108.89-33.5 108.89-32.7Q108.89-31.2 107.89-31.2L107.89-31.2 98.49-31.2 98.49-1Q98.49-0.5 98.04-0.2 97.59 0.1 96.59 0.1L96.59 0.1ZM115.74 0.1L115.34 0.1Q114.24 0.1 113.82-0.2 113.39-0.5 113.39-1L113.39-1 113.39-36.5Q113.39-37.05 113.82-37.33 114.24-37.6 115.34-37.6L115.34-37.6 115.74-37.6Q116.84-37.6 117.27-37.33 117.69-37.05 117.69-36.5L117.69-36.5 117.69-23Q118.59-24.05 119.77-24.83 120.94-25.6 122.32-26.03 123.69-26.45 125.04-26.45L125.04-26.45Q127.59-26.45 129.42-25.48 131.24-24.5 132.22-22.7 133.19-20.9 133.19-18.35L133.19-18.35 133.19-1Q133.19-0.5 132.77-0.2 132.34 0.1 131.24 0.1L131.24 0.1 130.84 0.1Q129.74 0.1 129.32-0.2 128.89-0.5 128.89-1L128.89-1 128.89-17.95Q128.89-20.35 127.62-21.58 126.34-22.8 123.84-22.8L123.84-22.8Q122.64-22.8 121.49-22.38 120.34-21.95 119.37-21.18 118.39-20.4 117.69-19.3L117.69-19.3 117.69-1Q117.69-0.5 117.27-0.2 116.84 0.1 115.74 0.1L115.74 0.1ZM151.79 0.3L151.79 0.3Q146.04 0.3 142.96-2.7 139.89-5.7 139.89-12.95L139.89-12.95Q139.89-17.3 141.24-20.3 142.59-23.3 145.21-24.88 147.84-26.45 151.59-26.45L151.59-26.45Q154.99-26.45 157.26-24.98 159.54-23.5 160.66-20.6 161.79-17.7 161.79-13.5L161.79-13.5Q161.79-13.05 161.54-12.55 161.29-12.05 160.89-11.7 160.49-11.35 160.04-11.35L160.04-11.35 144.29-11.35Q144.39-7.2 146.24-5.25 148.09-3.3 151.89-3.3L151.89-3.3Q154.29-3.3 155.96-3.85 157.64-4.4 158.61-4.95 159.59-5.5 159.84-5.5L159.84-5.5Q160.19-5.5 160.46-5.08 160.74-4.65 160.94-4.1 161.14-3.55 161.14-3.15L161.14-3.15Q161.14-2.7 160.41-2.13 159.69-1.55 158.41-0.98 157.14-0.4 155.44-0.05 153.74 0.3 151.79 0.3ZM144.29-14.95L144.29-14.95 157.49-14.95Q157.49-18.9 155.84-20.88 154.19-22.85 151.14-22.85L151.14-22.85Q148.94-22.85 147.44-21.88 145.94-20.9 145.14-19.15 144.34-17.4 144.29-14.95ZM191.03 0L182.48 0Q180.93 0 180.93-1.5L180.93-1.5 180.93-33.5Q180.93-35 182.48-35L182.48-35 191.38-35Q195.13-35 197.61-33.88 200.08-32.75 201.33-30.78 202.58-28.8 202.58-26.15L202.58-26.15Q202.58-24.45 201.81-22.83 201.03-21.2 199.78-20.03 198.53-18.85 197.08-18.45L197.08-18.45 197.08-18.25Q199.28-17.75 200.83-16.6 202.38-15.45 203.23-13.78 204.08-12.1 204.08-10.05L204.08-10.05Q204.08-6.6 202.58-4.38 201.08-2.15 198.16-1.07 195.23 0 191.03 0L191.03 0ZM185.43-16L185.43-3.8 192.63-3.8Q195.88-3.8 197.71-5.45 199.53-7.1 199.53-10L199.53-10Q199.53-12.8 197.58-14.4 195.63-16 191.78-16L191.78-16 185.43-16ZM185.43-31.2L185.43-19.8 191.13-19.8Q194.18-19.8 196.11-21.55 198.03-23.3 198.03-25.75L198.03-25.75Q198.03-28.55 196.36-29.88 194.68-31.2 190.93-31.2L190.93-31.2 185.43-31.2ZM220.38 0.3L220.38 0.3Q214.63 0.3 211.56-2.7 208.48-5.7 208.48-12.95L208.48-12.95Q208.48-17.3 209.83-20.3 211.18-23.3 213.81-24.88 216.43-26.45 220.18-26.45L220.18-26.45Q223.58-26.45 225.86-24.98 228.13-23.5 229.26-20.6 230.38-17.7 230.38-13.5L230.38-13.5Q230.38-13.05 230.13-12.55 229.88-12.05 229.48-11.7 229.08-11.35 228.63-11.35L228.63-11.35 212.88-11.35Q212.98-7.2 214.83-5.25 216.68-3.3 220.48-3.3L220.48-3.3Q222.88-3.3 224.56-3.85 226.23-4.4 227.21-4.95 228.18-5.5 228.43-5.5L228.43-5.5Q228.78-5.5 229.06-5.08 229.33-4.65 229.53-4.1 229.73-3.55 229.73-3.15L229.73-3.15Q229.73-2.7 229.01-2.13 228.28-1.55 227.01-0.98 225.73-0.4 224.03-0.05 222.33 0.3 220.38 0.3ZM212.88-14.95L212.88-14.95 226.08-14.95Q226.08-18.9 224.43-20.88 222.78-22.85 219.73-22.85L219.73-22.85Q217.53-22.85 216.03-21.88 214.53-20.9 213.73-19.15 212.93-17.4 212.88-14.95ZM242.58 0.45L242.58 0.45Q240.88 0.45 239.43 0.13 237.98-0.2 236.9-0.7 235.83-1.2 235.23-1.73 234.63-2.25 234.63-2.7L234.63-2.7Q234.63-3 234.93-3.6 235.23-4.2 235.63-4.7 236.03-5.2 236.38-5.2L236.38-5.2Q236.58-5.2 237.28-4.7 237.98-4.2 239.25-3.7 240.53-3.2 242.28-3.2L242.28-3.2Q244.68-3.2 245.93-4.15 247.18-5.1 247.18-6.9L247.18-6.9Q247.18-8.25 246.53-9.08 245.88-9.9 244.75-10.45 243.63-11 242.18-11.45L242.18-11.45Q240.88-11.9 239.63-12.45 238.38-13 237.38-13.85 236.38-14.7 235.8-16 235.23-17.3 235.23-19.25L235.23-19.25Q235.23-21.35 236.3-23 237.38-24.65 239.25-25.58 241.13-26.5 243.53-26.5L243.53-26.5Q244.83-26.5 246-26.33 247.18-26.15 248.1-25.85 249.03-25.55 249.58-25.15 250.13-24.75 250.13-24.35L250.13-24.35Q250.13-23.95 249.85-23.3 249.58-22.65 249.23-22.15 248.88-21.65 248.53-21.65L248.53-21.65Q248.33-21.65 247.18-22.3 246.03-22.95 243.98-22.95L243.98-22.95Q242.13-22.95 240.83-22.08 239.53-21.2 239.53-19.6L239.53-19.6Q239.53-18.65 239.88-18 240.23-17.35 241.08-16.82 241.93-16.3 243.43-15.8L243.43-15.8Q245.13-15.25 246.58-14.55 248.03-13.85 249.13-12.88 250.23-11.9 250.83-10.55 251.43-9.2 251.43-7.35L251.43-7.35Q251.43-5.1 250.25-3.35 249.08-1.6 247.08-0.58 245.08 0.45 242.58 0.45ZM264.73 0.3L264.73 0.3Q262.73 0.3 261.4-0.45 260.08-1.2 259.4-2.68 258.73-4.15 258.73-6.3L258.73-6.3 258.73-22.55 256.23-22.55Q255.23-22.55 255.23-24.05L255.23-24.05 255.23-24.65Q255.23-26.15 256.23-26.15L256.23-26.15 258.73-26.15 259.33-31.4Q259.43-31.95 259.8-32.23 260.18-32.5 260.88-32.5L260.88-32.5 261.28-32.5Q262.28-32.5 262.65-32.23 263.03-31.95 263.03-31.4L263.03-31.4 263.03-26.15 267.28-26.15Q268.28-26.15 268.28-24.65L268.28-24.65 268.28-24.05Q268.28-22.55 267.28-22.55L267.28-22.55 263.03-22.55 263.03-6.3Q263.03-4.7 263.55-4.05 264.08-3.4 265.38-3.4L265.38-3.4Q266.53-3.4 267.03-3.65 267.53-3.9 267.88-3.9L267.88-3.9Q268.13-3.9 268.3-3.58 268.48-3.25 268.55-2.8 268.63-2.35 268.65-1.95 268.68-1.55 268.68-1.4L268.68-1.4Q268.68-0.9 268-0.5 267.33-0.1 266.4 0.1 265.48 0.3 264.73 0.3ZM289.72 0.1L289.32 0.1Q288.22 0.1 287.75-0.2 287.27-0.5 287.27-1L287.27-1 287.27-34Q287.27-34.55 287.75-34.83 288.22-35.1 289.32-35.1L289.32-35.1 291.07-35.1Q292.22-35.1 292.85-34.88 293.47-34.65 293.67-34.2L293.67-34.2 302.27-17.45Q302.62-16.8 303-15.95 303.37-15.1 303.57-14.3L303.57-14.3Q303.82-15.15 304.3-16.07 304.77-17 305.12-17.6L305.12-17.6 313.52-34.2Q313.77-34.65 314.37-34.88 314.97-35.1 316.07-35.1L316.07-35.1 317.67-35.1Q318.82-35.1 319.27-34.83 319.72-34.55 319.72-34L319.72-34 319.72-1Q319.72-0.5 319.27-0.2 318.82 0.1 317.67 0.1L317.67 0.1 317.27 0.1Q316.17 0.1 315.7-0.2 315.22-0.5 315.22-1L315.22-1 315.22-25.05Q315.22-25.75 315.22-26.45 315.22-27.15 315.27-27.8L315.27-27.8 315.07-27.85Q314.77-27.25 314.5-26.7 314.22-26.15 313.92-25.6L313.92-25.6 306.37-10.8Q306.02-10.15 305.55-9.95 305.07-9.75 304.07-9.75L304.07-9.75 303.07-9.75Q302.12-9.75 301.65-9.95 301.17-10.15 300.77-10.8L300.77-10.8 293.07-25.9Q292.77-26.45 292.5-27 292.22-27.55 291.92-28.15L291.92-28.15 291.72-28.1Q291.77-27.45 291.77-26.75 291.77-26.05 291.77-25.35L291.77-25.35 291.77-1Q291.77-0.5 291.32-0.2 290.87 0.1 289.72 0.1L289.72 0.1ZM336.07 0.3L336.07 0.3Q332.37 0.3 330.24-1.83 328.12-3.95 328.12-7.65L328.12-7.65 328.12-25.15Q328.12-25.7 328.54-25.98 328.97-26.25 330.07-26.25L330.07-26.25 330.47-26.25Q331.57-26.25 331.99-25.98 332.42-25.7 332.42-25.15L332.42-25.15 332.42-8.05Q332.42-5.75 333.64-4.55 334.87-3.35 337.27-3.35L337.27-3.35Q338.52-3.35 339.69-3.78 340.87-4.2 341.89-5 342.92-5.8 343.62-6.85L343.62-6.85 343.62-25.15Q343.62-25.7 344.04-25.98 344.47-26.25 345.57-26.25L345.57-26.25 345.97-26.25Q347.07-26.25 347.49-25.98 347.92-25.7 347.92-25.15L347.92-25.15 347.92-7.5Q347.92-5.45 348.04-4.15 348.17-2.85 348.29-2.13 348.42-1.4 348.42-1.05L348.42-1.05Q348.42-0.8 348.12-0.6 347.82-0.4 347.37-0.28 346.92-0.15 346.42-0.08 345.92 0 345.52 0L345.52 0Q345.07 0 344.82-0.33 344.57-0.65 344.37-1.43 344.17-2.2 343.92-3.45L343.92-3.45Q342.92-2.3 341.62-1.45 340.32-0.6 338.92-0.15 337.52 0.3 336.07 0.3ZM362.32 0.45L362.32 0.45Q360.62 0.45 359.17 0.13 357.72-0.2 356.64-0.7 355.57-1.2 354.97-1.73 354.37-2.25 354.37-2.7L354.37-2.7Q354.37-3 354.67-3.6 354.97-4.2 355.37-4.7 355.77-5.2 356.12-5.2L356.12-5.2Q356.32-5.2 357.02-4.7 357.72-4.2 358.99-3.7 360.27-3.2 362.02-3.2L362.02-3.2Q364.42-3.2 365.67-4.15 366.92-5.1 366.92-6.9L366.92-6.9Q366.92-8.25 366.27-9.08 365.62-9.9 364.49-10.45 363.37-11 361.92-11.45L361.92-11.45Q360.62-11.9 359.37-12.45 358.12-13 357.12-13.85 356.12-14.7 355.54-16 354.97-17.3 354.97-19.25L354.97-19.25Q354.97-21.35 356.04-23 357.12-24.65 358.99-25.58 360.87-26.5 363.27-26.5L363.27-26.5Q364.57-26.5 365.74-26.33 366.92-26.15 367.84-25.85 368.77-25.55 369.32-25.15 369.87-24.75 369.87-24.35L369.87-24.35Q369.87-23.95 369.59-23.3 369.32-22.65 368.97-22.15 368.62-21.65 368.27-21.65L368.27-21.65Q368.07-21.65 366.92-22.3 365.77-22.95 363.72-22.95L363.72-22.95Q361.87-22.95 360.57-22.08 359.27-21.2 359.27-19.6L359.27-19.6Q359.27-18.65 359.62-18 359.97-17.35 360.82-16.82 361.67-16.3 363.17-15.8L363.17-15.8Q364.87-15.25 366.32-14.55 367.77-13.85 368.87-12.88 369.97-11.9 370.57-10.55 371.17-9.2 371.17-7.35L371.17-7.35Q371.17-5.1 369.99-3.35 368.82-1.6 366.82-0.58 364.82 0.45 362.32 0.45ZM379.91 0.1L379.51 0.1Q378.41 0.1 377.99-0.2 377.56-0.5 377.56-1L377.56-1 377.56-25.15Q377.56-25.7 377.99-25.98 378.41-26.25 379.51-26.25L379.51-26.25 379.91-26.25Q381.01-26.25 381.44-25.98 381.86-25.7 381.86-25.15L381.86-25.15 381.86-1Q381.86-0.5 381.44-0.2 381.01 0.1 379.91 0.1L379.91 0.1ZM379.71-29.75L379.71-29.75Q378.51-29.75 378.01-30.05 377.51-30.35 377.51-30.85L377.51-30.85 377.51-33.85Q377.51-34.35 378.01-34.65 378.51-34.95 379.71-34.95L379.71-34.95Q380.91-34.95 381.41-34.68 381.91-34.4 381.91-33.85L381.91-33.85 381.91-30.85Q381.91-30.35 381.41-30.05 380.91-29.75 379.71-29.75ZM400.96 0.3L400.96 0.3Q395.16 0.3 392.11-2.7 389.06-5.7 389.06-12.95L389.06-12.95Q389.06-19.45 392.11-22.95 395.16-26.45 400.91-26.45L400.91-26.45Q402.41-26.45 403.76-26.23 405.11-26 406.16-25.6 407.21-25.2 407.84-24.75 408.46-24.3 408.46-23.85L408.46-23.85Q408.46-23.45 408.26-22.88 408.06-22.3 407.76-21.88 407.46-21.45 407.11-21.45L407.11-21.45Q406.76-21.45 405.94-21.8 405.11-22.15 403.81-22.5 402.51-22.85 400.66-22.85L400.66-22.85Q397.11-22.85 395.29-20.4 393.46-17.95 393.46-13.05L393.46-13.05Q393.46-8 395.29-5.65 397.11-3.3 401.06-3.3L401.06-3.3Q402.76-3.3 404.11-3.75 405.46-4.2 406.36-4.65 407.26-5.1 407.56-5.1L407.56-5.1Q407.91-5.1 408.19-4.67 408.46-4.25 408.66-3.7 408.86-3.15 408.86-2.75L408.86-2.75Q408.86-2.3 408.14-1.75 407.41-1.2 406.26-0.75 405.11-0.3 403.71 0 402.31 0.3 400.96 0.3Z" opacity="1" transform="matrix(1,0,0,1,0,0)" fill="#0080ff" class="slogan-text-1" data-fill-palette-color="secondary" id="text-1"></path></svg></g></svg></g></svg></g></svg></g></svg></g><defs></defs></svg><rect width="395.52" height="218.39519352529516" fill="none" stroke="none" visibility="hidden"></rect></g></svg></g></svg>